REM DIRINDEX 1\2,1\3,1\4,1\5,1\6
REM DIRNAME folder01,folder02,folder03,folder04,folder05,folder06
TITLE ""
FILE "Disc3Track46.mp3" MP3
  TRACK 01 AUDIO
    TITLE "3:cjc030_05453"
    INDEX 01 00:00:00
  TRACK 02 AUDIO
    TITLE "0:"
    INDEX 01 00:01:07
  TRACK 03 AUDIO
    TITLE "4:cjc030_05454"
    INDEX 01 00:01:17
  TRACK 04 AUDIO
    TITLE "0:"
    INDEX 01 00:02:36
  TRACK 05 AUDIO
    TITLE "5:cjc030_05455"
    INDEX 01 00:02:45
  TRACK 06 AUDIO
    TITLE "0:"
    INDEX 01 00:03:59
  TRACK 07 AUDIO
    TITLE "6:cjc030_05456"
    INDEX 01 00:03:70
  TRACK 08 AUDIO
    TITLE "0:"
    INDEX 01 00:05:44
  TRACK 09 AUDIO
    TITLE "3:cjc030_05457"
    INDEX 01 00:06:18
  TRACK 10 AUDIO
    TITLE "0:"
    INDEX 01 00:07:41
  TRACK 11 AUDIO
    TITLE "4:cjc030_05458"
    INDEX 01 00:07:49
  TRACK 12 AUDIO
    TITLE "0:"
    INDEX 01 00:08:73
  TRACK 13 AUDIO
    TITLE "5:cjc030_05459"
    INDEX 01 00:09:04
  TRACK 14 AUDIO
    TITLE "0:"
    INDEX 01 00:10:29
  TRACK 15 AUDIO
    TITLE "6:cjc030_05460"
    INDEX 01 00:10:41
  TRACK 16 AUDIO
    TITLE "0:"
    INDEX 01 00:14:07
  TRACK 17 AUDIO
    TITLE "3:cjc030_05461"
    INDEX 01 00:14:54
  TRACK 18 AUDIO
    TITLE "0:"
    INDEX 01 00:16:08
  TRACK 19 AUDIO
    TITLE "4:cjc030_05462"
    INDEX 01 00:16:16
  TRACK 20 AUDIO
    TITLE "0:"
    INDEX 01 00:17:12
  TRACK 21 AUDIO
    TITLE "5:cjc030_05463"
    INDEX 01 00:17:21
  TRACK 22 AUDIO
    TITLE "0:"
    INDEX 01 00:18:46
  TRACK 23 AUDIO
    TITLE "6:cjc030_05464"
    INDEX 01 00:18:60
  TRACK 24 AUDIO
    TITLE "0:"
    INDEX 01 00:20:47
  TRACK 25 AUDIO
    TITLE "3:cjc030_05465"
    INDEX 01 00:21:19
  TRACK 26 AUDIO
    TITLE "0:"
    INDEX 01 00:22:36
  TRACK 27 AUDIO
    TITLE "4:cjc030_05466"
    INDEX 01 00:22:46
  TRACK 28 AUDIO
    TITLE "0:"
    INDEX 01 00:24:47
  TRACK 29 AUDIO
    TITLE "5:cjc030_05467"
    INDEX 01 00:24:55
  TRACK 30 AUDIO
    TITLE "0:"
    INDEX 01 00:25:70
  TRACK 31 AUDIO
    TITLE "6:cjc030_05468"
    INDEX 01 00:26:09
  TRACK 32 AUDIO
    TITLE "0:"
    INDEX 01 00:28:49
  TRACK 33 AUDIO
    TITLE "3:cjc030_05469"
    INDEX 01 00:29:23
  TRACK 34 AUDIO
    TITLE "0:"
    INDEX 01 00:30:44
  TRACK 35 AUDIO
    TITLE "4:cjc030_05470"
    INDEX 01 00:30:55
  TRACK 36 AUDIO
    TITLE "0:"
    INDEX 01 00:31:67
  TRACK 37 AUDIO
    TITLE "5:cjc030_05471"
    INDEX 01 00:32:01
  TRACK 38 AUDIO
    TITLE "0:"
    INDEX 01 00:33:24
  TRACK 39 AUDIO
    TITLE "6:cjc030_05472"
    INDEX 01 00:33:36
  TRACK 40 AUDIO
    TITLE "0:"
    INDEX 01 00:37:46
  TRACK 41 AUDIO
    TITLE "3:cjc030_05473"
    INDEX 01 00:38:18
  TRACK 42 AUDIO
    TITLE "0:"
    INDEX 01 00:39:37
  TRACK 43 AUDIO
    TITLE "4:cjc030_05474"
    INDEX 01 00:39:47
  TRACK 44 AUDIO
    TITLE "0:"
    INDEX 01 00:40:42
  TRACK 45 AUDIO
    TITLE "5:cjc030_05475"
    INDEX 01 00:40:52
  TRACK 46 AUDIO
    TITLE "0:"
    INDEX 01 00:41:71
  TRACK 47 AUDIO
    TITLE "3:cjc030_05476"
    INDEX 01 00:42:51
  TRACK 48 AUDIO
    TITLE "0:"
    INDEX 01 00:43:58
  TRACK 49 AUDIO
    TITLE "4:cjc030_05477"
    INDEX 01 00:43:68
  TRACK 50 AUDIO
    TITLE "0:"
    INDEX 01 00:45:65
  TRACK 51 AUDIO
    TITLE "5:cjc030_05478"
    INDEX 01 00:45:73
  TRACK 52 AUDIO
    TITLE "0:"
    INDEX 01 00:47:07
  TRACK 53 AUDIO
    TITLE "6:cjc030_05479"
    INDEX 01 00:47:19
  TRACK 54 AUDIO
    TITLE "0:"
    INDEX 01 00:48:73
  TRACK 55 AUDIO
    TITLE "3:cjc030_05480"
    INDEX 01 00:49:49
  TRACK 56 AUDIO
    TITLE "0:"
    INDEX 01 00:50:64
  TRACK 57 AUDIO
    TITLE "4:cjc030_05481"
    INDEX 01 00:50:74
  TRACK 58 AUDIO
    TITLE "0:"
    INDEX 01 00:51:71
  TRACK 59 AUDIO
    TITLE "5:cjc030_05482"
    INDEX 01 00:52:04
  TRACK 60 AUDIO
    TITLE "0:"
    INDEX 01 00:53:19
  TRACK 61 AUDIO
    TITLE "3:cjc030_05483"
    INDEX 01 00:54:01
  TRACK 62 AUDIO
    TITLE "0:"
    INDEX 01 00:55:20
  TRACK 63 AUDIO
    TITLE "4:cjc030_05484"
    INDEX 01 00:55:28
  TRACK 64 AUDIO
    TITLE "0:"
    INDEX 01 00:58:54
  TRACK 65 AUDIO
    TITLE "5:cjc030_05485"
    INDEX 01 00:58:64
  TRACK 66 AUDIO
    TITLE "0:"
    INDEX 01 01:00:10
  TRACK 67 AUDIO
    TITLE "6:cjc030_05486"
    INDEX 01 01:00:19
  TRACK 68 AUDIO
    TITLE "0:"
    INDEX 01 01:04:52
  TRACK 69 AUDIO
    TITLE "3:cjc030_05487"
    INDEX 01 01:05:26
  TRACK 70 AUDIO
    TITLE "0:"
    INDEX 01 01:06:55
  TRACK 71 AUDIO
    TITLE "4:cjc030_05488"
    INDEX 01 01:06:67
  TRACK 72 AUDIO
    TITLE "0:"
    INDEX 01 01:08:48
  TRACK 73 AUDIO
    TITLE "5:cjc030_05489"
    INDEX 01 01:08:56
  TRACK 74 AUDIO
    TITLE "0:"
    INDEX 01 01:10:14
